<?xml version="1.0" encoding="UTF-8" standalone="no"?>
<!-- Created with Inkscape (http://www.inkscape.org/) -->

<svg
   width="200.993mm"
   height="114.18085mm"
   viewBox="0 0 200.99301 114.18085"
   version="1.1"
   id="svg1"
   xml:space="preserve"
   sodipodi:docname="bitmap.svg"
   inkscape:export-filename="Desktop\bitmap.png"
   inkscape:export-xdpi="96"
   inkscape:export-ydpi="96"
   inkscape:version="1.3.2 (091e20e, 2023-11-25, custom)"
   xmlns:inkscape="http://www.inkscape.org/namespaces/inkscape"
   xmlns:sodipodi="http://sodipodi.sourceforge.net/DTD/sodipodi-0.dtd"
   xmlns:xlink="http://www.w3.org/1999/xlink"
   xmlns="http://www.w3.org/2000/svg"
   xmlns:svg="http://www.w3.org/2000/svg"><sodipodi:namedview
     id="namedview1"
     pagecolor="#ffffff"
     bordercolor="#000000"
     borderopacity="0.25"
     inkscape:showpageshadow="2"
     inkscape:pageopacity="0.0"
     inkscape:pagecheckerboard="0"
     inkscape:deskcolor="#d1d1d1"
     inkscape:document-units="mm"
     inkscape:zoom="0.7426724"
     inkscape:cx="452.42021"
     inkscape:cy="107.04585"
     inkscape:window-width="1600"
     inkscape:window-height="837"
     inkscape:window-x="-8"
     inkscape:window-y="-8"
     inkscape:window-maximized="1"
     inkscape:current-layer="svg1" /><defs
     id="defs1"><linearGradient
       id="linearGradient3"
       inkscape:collect="always"><stop
         style="stop-color:#1dceaf;stop-opacity:1;"
         offset="0"
         id="stop3" /><stop
         style="stop-color:#89d978;stop-opacity:1;"
         offset="0"
         id="stop4" /></linearGradient><linearGradient
       id="linearGradient1"
       inkscape:collect="always"><stop
         style="stop-color:#1dceaf;stop-opacity:1;"
         offset="0"
         id="stop1" /><stop
         style="stop-color:#89d978;stop-opacity:1;"
         offset="0.69377381"
         id="stop2" /></linearGradient><linearGradient
       inkscape:collect="always"
       xlink:href="#linearGradient1"
       id="linearGradient2"
       x1="51.694286"
       y1="149.35327"
       x2="155.39742"
       y2="149.35327"
       gradientUnits="userSpaceOnUse" /><linearGradient
       inkscape:collect="always"
       xlink:href="#linearGradient3"
       id="linearGradient4"
       x1="112.78632"
       y1="75.038979"
       x2="197.96997"
       y2="73.527504"
       gradientUnits="userSpaceOnUse"
       gradientTransform="matrix(0.81355488,0,0,0.81355484,-12.588902,22.911897)" /></defs><g
     id="layer1"
     transform="translate(-51.694286,-92.262848)"><path
       style="fill:url(#linearGradient2);fill-opacity:1;stroke:none;stroke-opacity:1"
       d="m 112.49079,205.07328 c -3.30255,-3.58284 -6.10444,-8.71577 -7.55612,-13.84243 -0.77537,-2.73824 -0.80515,-3.42062 -1.00064,-22.93056 -0.19435,-19.39689 -0.22689,-20.15158 -0.91952,-21.33057 -1.55198,-2.64177 -1.51695,-2.63588 -16.920847,-2.8459 -15.328466,-0.209 -15.265056,-0.19973 -20.637499,-3.01553 -10.826989,-5.67462 -16.318083,-18.98238 -12.603973,-30.54596 2.662052,-8.2881 9.656174,-15.05468 18.072029,-17.484092 3.073818,-0.887321 53.09305,-1.151818 53.09305,-0.28075 0,0.915549 -8.68989,17.949412 -9.57573,18.770282 -1.59906,1.48177 -2.14734,1.5228 -20.350653,1.5228 -16.387097,0 -17.613584,0.0427 -18.762449,0.65321 -3.630808,1.92941 -3.746811,6.41216 -0.233307,9.01574 0.994808,0.73718 1.039874,0.7381 40.657629,0.83213 31.16583,0.074 39.65807,0.18732 39.64463,0.52916 -0.009,0.23927 -2.11284,4.56203 -4.6743,9.60613 -3.88552,7.65146 -4.84373,9.27694 -5.78286,9.80987 -1.01369,0.57523 -2.07517,0.63588 -10.67153,0.60976 -9.54588,-0.029 -9.54588,-0.029 -9.54588,18.99234 0,10.72378 -0.16113,20.59153 -0.36937,22.62084 -0.74301,7.24038 -3.8015,14.21355 -8.3955,19.14123 -1.89315,2.03065 -1.76028,2.02405 -3.46716,0.1723 z M 52.067701,175.09126 c 0.009,-0.24253 2.11284,-4.56847 4.674309,-9.61319 6.098139,-12.01009 3.769451,-10.81868 20.884987,-10.68516 14.488115,0.11302 14.269379,0.0804 17.323513,2.58304 2.869955,2.35171 3.451094,4.24169 3.603131,11.71809 0.130923,6.43819 0.130923,6.43819 -23.186053,6.43819 -18.427517,0 -23.313397,-0.0925 -23.299887,-0.44097 z"
       id="path1" /></g><text
     xml:space="preserve"
     style="font-size:86.101px;font-family:Teko;-inkscape-font-specification:Teko;fill:url(#linearGradient4);stroke-width:24.6303;paint-order:stroke fill markers"
     x="75.811028"
     y="112.761"
     id="text1"
     transform="scale(0.9982449,1.0017582)"><tspan
       sodipodi:role="line"
       id="tspan1"
       style="font-style:normal;font-variant:normal;font-weight:600;font-stretch:normal;font-family:Teko;-inkscape-font-specification:'Teko Semi-Bold';fill:url(#linearGradient4);stroke-width:24.6304"
       x="75.811028"
       y="112.761">iven</tspan></text></svg>
